<mxfile host="app.diagrams.net" modified="2024-05-17T18:46:55.776Z" agent="Mozilla/5.0 (Macintosh; Intel Mac OS X 10_15_7) AppleWebKit/537.36 (KHTML, like Gecko) Chrome/123.0.0.0 Safari/537.36" etag="Tz-RkzRi-HXGaVECH8Rh" version="24.4.0" type="device" pages="3">
  <diagram name="InitialConnections" id="2YBvvXClWsGukQMizWep">
    <mxGraphModel dx="899" dy="1599" grid="1" gridSize="10" guides="1" tooltips="1" connect="1" arrows="1" fold="1" page="1" pageScale="1" pageWidth="850" pageHeight="1100" math="0" shadow="0">
      <root>
        <mxCell id="0" />
        <mxCell id="1" parent="0" />
        <mxCell id="OeqED8I9lP4eWum1eZ6B-4" value="" style="rounded=1;whiteSpace=wrap;html=1;dashed=1;fillColor=#d5e8d4;strokeColor=#82b366;glass=0;sketch=1;curveFitting=1;jiggle=2;" vertex="1" parent="1">
          <mxGeometry x="210" y="-10" width="300" height="660" as="geometry" />
        </mxCell>
        <mxCell id="aM9ryv3xv72pqoxQDRHE-1" value="Dashboard UI &lt;font style=&quot;font-size: 8px;&quot;&gt;(browser)&lt;/font&gt;" style="shape=umlLifeline;perimeter=lifelinePerimeter;whiteSpace=wrap;html=1;container=0;dropTarget=0;collapsible=0;recursiveResize=0;outlineConnect=0;portConstraint=eastwest;newEdgeStyle={&quot;edgeStyle&quot;:&quot;elbowEdgeStyle&quot;,&quot;elbow&quot;:&quot;vertical&quot;,&quot;curved&quot;:0,&quot;rounded&quot;:0};" parent="1" vertex="1">
          <mxGeometry x="40" y="40" width="100" height="610" as="geometry" />
        </mxCell>
        <mxCell id="aM9ryv3xv72pqoxQDRHE-2" value="" style="html=1;points=[];perimeter=orthogonalPerimeter;outlineConnect=0;targetShapes=umlLifeline;portConstraint=eastwest;newEdgeStyle={&quot;edgeStyle&quot;:&quot;elbowEdgeStyle&quot;,&quot;elbow&quot;:&quot;vertical&quot;,&quot;curved&quot;:0,&quot;rounded&quot;:0};" parent="aM9ryv3xv72pqoxQDRHE-1" vertex="1">
          <mxGeometry x="45" y="80" width="10" height="250" as="geometry" />
        </mxCell>
        <mxCell id="aM9ryv3xv72pqoxQDRHE-3" value="&quot;/...&quot;" style="html=1;verticalAlign=bottom;startArrow=oval;endArrow=block;startSize=8;edgeStyle=elbowEdgeStyle;elbow=vertical;curved=0;rounded=0;" parent="aM9ryv3xv72pqoxQDRHE-1" edge="1">
          <mxGeometry relative="1" as="geometry">
            <mxPoint x="-15" y="80" as="sourcePoint" />
            <mxPoint x="45" y="80.28571428571445" as="targetPoint" />
          </mxGeometry>
        </mxCell>
        <mxCell id="aM9ryv3xv72pqoxQDRHE-4" value="" style="html=1;points=[];perimeter=orthogonalPerimeter;outlineConnect=0;targetShapes=umlLifeline;portConstraint=eastwest;newEdgeStyle={&quot;edgeStyle&quot;:&quot;elbowEdgeStyle&quot;,&quot;elbow&quot;:&quot;vertical&quot;,&quot;curved&quot;:0,&quot;rounded&quot;:0};" parent="aM9ryv3xv72pqoxQDRHE-1" vertex="1">
          <mxGeometry x="50" y="120" width="10" height="70" as="geometry" />
        </mxCell>
        <mxCell id="aM9ryv3xv72pqoxQDRHE-5" value="OAuth Proxy&lt;br&gt;&lt;font style=&quot;font-size: 8px;&quot;&gt;container&lt;/font&gt;" style="shape=umlLifeline;perimeter=lifelinePerimeter;whiteSpace=wrap;html=1;container=0;dropTarget=0;collapsible=0;recursiveResize=0;outlineConnect=0;portConstraint=eastwest;newEdgeStyle={&quot;edgeStyle&quot;:&quot;elbowEdgeStyle&quot;,&quot;elbow&quot;:&quot;vertical&quot;,&quot;curved&quot;:0,&quot;rounded&quot;:0};" parent="1" vertex="1">
          <mxGeometry x="220" y="40" width="100" height="610" as="geometry" />
        </mxCell>
        <mxCell id="aM9ryv3xv72pqoxQDRHE-6" value="" style="html=1;points=[];perimeter=orthogonalPerimeter;outlineConnect=0;targetShapes=umlLifeline;portConstraint=eastwest;newEdgeStyle={&quot;edgeStyle&quot;:&quot;elbowEdgeStyle&quot;,&quot;elbow&quot;:&quot;vertical&quot;,&quot;curved&quot;:0,&quot;rounded&quot;:0};" parent="aM9ryv3xv72pqoxQDRHE-5" vertex="1">
          <mxGeometry x="45" y="80" width="10" height="360" as="geometry" />
        </mxCell>
        <mxCell id="aM9ryv3xv72pqoxQDRHE-7" value="request Dashboard HTML" style="html=1;verticalAlign=bottom;endArrow=open;edgeStyle=elbowEdgeStyle;elbow=vertical;curved=0;rounded=0;endFill=0;" parent="1" source="aM9ryv3xv72pqoxQDRHE-2" target="aM9ryv3xv72pqoxQDRHE-6" edge="1">
          <mxGeometry relative="1" as="geometry">
            <mxPoint x="195" y="130" as="sourcePoint" />
            <Array as="points">
              <mxPoint x="180" y="120" />
            </Array>
            <mxPoint as="offset" />
          </mxGeometry>
        </mxCell>
        <mxCell id="aM9ryv3xv72pqoxQDRHE-9" value="(not logged in)&lt;br&gt;redirect to OAuth Proxy" style="html=1;verticalAlign=bottom;endArrow=classic;edgeStyle=elbowEdgeStyle;elbow=vertical;curved=0;rounded=0;endFill=0;" parent="1" source="aM9ryv3xv72pqoxQDRHE-6" target="aM9ryv3xv72pqoxQDRHE-4" edge="1">
          <mxGeometry x="0.0043" relative="1" as="geometry">
            <mxPoint x="175" y="160" as="sourcePoint" />
            <Array as="points">
              <mxPoint x="190" y="160" />
            </Array>
            <mxPoint as="offset" />
          </mxGeometry>
        </mxCell>
        <mxCell id="OeqED8I9lP4eWum1eZ6B-7" value="Dashboard Pod" style="text;html=1;align=center;verticalAlign=middle;whiteSpace=wrap;rounded=0;" vertex="1" parent="1">
          <mxGeometry x="210" width="300" height="30" as="geometry" />
        </mxCell>
        <mxCell id="OeqED8I9lP4eWum1eZ6B-10" value="Dashboard&lt;br&gt;&lt;font style=&quot;font-size: 8px;&quot;&gt;container&lt;/font&gt;" style="shape=umlLifeline;perimeter=lifelinePerimeter;whiteSpace=wrap;html=1;container=0;dropTarget=0;collapsible=0;recursiveResize=0;outlineConnect=0;portConstraint=eastwest;newEdgeStyle={&quot;edgeStyle&quot;:&quot;elbowEdgeStyle&quot;,&quot;elbow&quot;:&quot;vertical&quot;,&quot;curved&quot;:0,&quot;rounded&quot;:0};" vertex="1" parent="1">
          <mxGeometry x="400" y="40" width="100" height="610" as="geometry" />
        </mxCell>
        <mxCell id="OeqED8I9lP4eWum1eZ6B-11" value="" style="html=1;points=[];perimeter=orthogonalPerimeter;outlineConnect=0;targetShapes=umlLifeline;portConstraint=eastwest;newEdgeStyle={&quot;edgeStyle&quot;:&quot;elbowEdgeStyle&quot;,&quot;elbow&quot;:&quot;vertical&quot;,&quot;curved&quot;:0,&quot;rounded&quot;:0};" vertex="1" parent="OeqED8I9lP4eWum1eZ6B-10">
          <mxGeometry x="45" y="240" width="10" height="350" as="geometry" />
        </mxCell>
        <mxCell id="OeqED8I9lP4eWum1eZ6B-36" value="" style="html=1;points=[];perimeter=orthogonalPerimeter;outlineConnect=0;targetShapes=umlLifeline;portConstraint=eastwest;newEdgeStyle={&quot;edgeStyle&quot;:&quot;elbowEdgeStyle&quot;,&quot;elbow&quot;:&quot;vertical&quot;,&quot;curved&quot;:0,&quot;rounded&quot;:0};" vertex="1" parent="OeqED8I9lP4eWum1eZ6B-10">
          <mxGeometry x="50" y="410" width="10" height="150" as="geometry" />
        </mxCell>
        <mxCell id="OeqED8I9lP4eWum1eZ6B-15" value="OpenShift Console K8s" style="shape=umlLifeline;perimeter=lifelinePerimeter;whiteSpace=wrap;html=1;container=0;dropTarget=0;collapsible=0;recursiveResize=0;outlineConnect=0;portConstraint=eastwest;newEdgeStyle={&quot;edgeStyle&quot;:&quot;elbowEdgeStyle&quot;,&quot;elbow&quot;:&quot;vertical&quot;,&quot;curved&quot;:0,&quot;rounded&quot;:0};" vertex="1" parent="1">
          <mxGeometry x="580" y="40" width="100" height="610" as="geometry" />
        </mxCell>
        <mxCell id="OeqED8I9lP4eWum1eZ6B-16" value="" style="html=1;points=[];perimeter=orthogonalPerimeter;outlineConnect=0;targetShapes=umlLifeline;portConstraint=eastwest;newEdgeStyle={&quot;edgeStyle&quot;:&quot;elbowEdgeStyle&quot;,&quot;elbow&quot;:&quot;vertical&quot;,&quot;curved&quot;:0,&quot;rounded&quot;:0};" vertex="1" parent="OeqED8I9lP4eWum1eZ6B-15">
          <mxGeometry x="45" y="410" width="10" height="150" as="geometry" />
        </mxCell>
        <mxCell id="OeqED8I9lP4eWum1eZ6B-18" value="End user" style="shape=umlActor;verticalLabelPosition=bottom;verticalAlign=top;html=1;outlineConnect=0;" vertex="1" parent="1">
          <mxGeometry x="20" y="140" width="30" height="60" as="geometry" />
        </mxCell>
        <mxCell id="OeqED8I9lP4eWum1eZ6B-22" value="request HTML" style="html=1;verticalAlign=bottom;endArrow=open;endSize=8;edgeStyle=elbowEdgeStyle;elbow=horizontal;curved=0;rounded=0;" edge="1" parent="1">
          <mxGeometry x="0.0043" relative="1" as="geometry">
            <mxPoint x="442.5" y="290" as="targetPoint" />
            <Array as="points">
              <mxPoint x="357.5" y="290" />
            </Array>
            <mxPoint x="277.5" y="290" as="sourcePoint" />
            <mxPoint as="offset" />
          </mxGeometry>
        </mxCell>
        <mxCell id="OeqED8I9lP4eWum1eZ6B-25" value="request HTML assets" style="html=1;verticalAlign=bottom;endArrow=open;endSize=8;edgeStyle=elbowEdgeStyle;elbow=horizontal;curved=0;rounded=0;" edge="1" parent="1">
          <mxGeometry x="0.0084" relative="1" as="geometry">
            <mxPoint x="265" y="330" as="targetPoint" />
            <Array as="points">
              <mxPoint x="180" y="330" />
            </Array>
            <mxPoint x="95" y="330" as="sourcePoint" />
            <mxPoint as="offset" />
          </mxGeometry>
        </mxCell>
        <mxCell id="OeqED8I9lP4eWum1eZ6B-26" value="request assets (js, css, img, etc)" style="html=1;verticalAlign=bottom;endArrow=open;endSize=8;edgeStyle=elbowEdgeStyle;elbow=horizontal;curved=0;rounded=0;" edge="1" parent="1">
          <mxGeometry x="0.0084" relative="1" as="geometry">
            <mxPoint x="445" y="350" as="targetPoint" />
            <Array as="points">
              <mxPoint x="360" y="350" />
            </Array>
            <mxPoint x="275" y="350" as="sourcePoint" />
            <mxPoint as="offset" />
          </mxGeometry>
        </mxCell>
        <mxCell id="OeqED8I9lP4eWum1eZ6B-28" value="return HTML" style="html=1;verticalAlign=bottom;endArrow=open;endSize=8;edgeStyle=elbowEdgeStyle;elbow=vertical;curved=0;rounded=0;" edge="1" parent="1">
          <mxGeometry relative="1" as="geometry">
            <mxPoint x="95" y="310" as="targetPoint" />
            <Array as="points">
              <mxPoint x="370" y="310" />
            </Array>
            <mxPoint x="445" y="310" as="sourcePoint" />
            <mxPoint as="offset" />
          </mxGeometry>
        </mxCell>
        <mxCell id="OeqED8I9lP4eWum1eZ6B-29" value="return assets" style="html=1;verticalAlign=bottom;endArrow=open;endSize=8;edgeStyle=elbowEdgeStyle;elbow=vertical;curved=0;rounded=0;" edge="1" parent="1">
          <mxGeometry relative="1" as="geometry">
            <mxPoint x="95" y="370" as="targetPoint" />
            <Array as="points">
              <mxPoint x="370" y="370" />
            </Array>
            <mxPoint x="445" y="370" as="sourcePoint" />
            <mxPoint as="offset" />
          </mxGeometry>
        </mxCell>
        <mxCell id="OeqED8I9lP4eWum1eZ6B-31" value="request&amp;nbsp;infrastructure data" style="html=1;verticalAlign=bottom;endArrow=open;endSize=8;edgeStyle=elbowEdgeStyle;elbow=horizontal;curved=0;rounded=0;" edge="1" parent="1">
          <mxGeometry x="0.0084" relative="1" as="geometry">
            <mxPoint x="265" y="410" as="targetPoint" />
            <Array as="points">
              <mxPoint x="180" y="410" />
            </Array>
            <mxPoint x="95" y="410" as="sourcePoint" />
            <mxPoint as="offset" />
          </mxGeometry>
        </mxCell>
        <mxCell id="OeqED8I9lP4eWum1eZ6B-32" value="" style="html=1;points=[];perimeter=orthogonalPerimeter;outlineConnect=0;targetShapes=umlLifeline;portConstraint=eastwest;newEdgeStyle={&quot;edgeStyle&quot;:&quot;elbowEdgeStyle&quot;,&quot;elbow&quot;:&quot;vertical&quot;,&quot;curved&quot;:0,&quot;rounded&quot;:0};" vertex="1" parent="1">
          <mxGeometry x="85" y="410" width="10" height="220" as="geometry" />
        </mxCell>
        <mxCell id="OeqED8I9lP4eWum1eZ6B-33" value="request infrastructure data" style="html=1;verticalAlign=bottom;endArrow=open;endSize=8;edgeStyle=elbowEdgeStyle;elbow=horizontal;curved=0;rounded=0;" edge="1" parent="1">
          <mxGeometry x="0.0084" relative="1" as="geometry">
            <mxPoint x="445" y="450" as="targetPoint" />
            <Array as="points">
              <mxPoint x="360" y="450" />
            </Array>
            <mxPoint x="275" y="450" as="sourcePoint" />
            <mxPoint as="offset" />
          </mxGeometry>
        </mxCell>
        <mxCell id="OeqED8I9lP4eWum1eZ6B-34" value="request k8s data" style="html=1;verticalAlign=bottom;endArrow=open;endSize=8;edgeStyle=elbowEdgeStyle;elbow=horizontal;curved=0;rounded=0;" edge="1" parent="1">
          <mxGeometry x="0.0084" relative="1" as="geometry">
            <mxPoint x="625" y="460" as="targetPoint" />
            <Array as="points">
              <mxPoint x="540" y="460" />
            </Array>
            <mxPoint x="460" y="460" as="sourcePoint" />
            <mxPoint as="offset" />
          </mxGeometry>
        </mxCell>
        <mxCell id="OeqED8I9lP4eWum1eZ6B-35" value="return OdhDashboardConfig" style="html=1;verticalAlign=bottom;endArrow=open;endSize=8;edgeStyle=elbowEdgeStyle;elbow=vertical;curved=0;rounded=0;" edge="1" parent="1">
          <mxGeometry x="0.0043" relative="1" as="geometry">
            <mxPoint x="460" y="510" as="targetPoint" />
            <Array as="points">
              <mxPoint x="550" y="510" />
            </Array>
            <mxPoint x="625" y="510" as="sourcePoint" />
            <mxPoint as="offset" />
          </mxGeometry>
        </mxCell>
        <mxCell id="OeqED8I9lP4eWum1eZ6B-37" value="return Role(s)" style="html=1;verticalAlign=bottom;endArrow=open;endSize=8;edgeStyle=elbowEdgeStyle;elbow=vertical;curved=0;rounded=0;" edge="1" parent="1">
          <mxGeometry x="0.0043" relative="1" as="geometry">
            <mxPoint x="460" y="530" as="targetPoint" />
            <Array as="points">
              <mxPoint x="550" y="530" />
            </Array>
            <mxPoint x="625" y="530" as="sourcePoint" />
            <mxPoint as="offset" />
          </mxGeometry>
        </mxCell>
        <mxCell id="OeqED8I9lP4eWum1eZ6B-38" value="return Group(s)" style="html=1;verticalAlign=bottom;endArrow=open;endSize=8;edgeStyle=elbowEdgeStyle;elbow=vertical;curved=0;rounded=0;" edge="1" parent="1">
          <mxGeometry x="0.0043" relative="1" as="geometry">
            <mxPoint x="460" y="550" as="targetPoint" />
            <Array as="points">
              <mxPoint x="550" y="550" />
            </Array>
            <mxPoint x="625" y="550" as="sourcePoint" />
            <mxPoint as="offset" />
          </mxGeometry>
        </mxCell>
        <mxCell id="OeqED8I9lP4eWum1eZ6B-39" value="...etc..." style="html=1;verticalAlign=bottom;endArrow=open;endSize=8;edgeStyle=elbowEdgeStyle;elbow=vertical;curved=0;rounded=0;" edge="1" parent="1">
          <mxGeometry x="0.0043" relative="1" as="geometry">
            <mxPoint x="460" y="570" as="targetPoint" />
            <Array as="points">
              <mxPoint x="550" y="570" />
            </Array>
            <mxPoint x="625" y="570" as="sourcePoint" />
            <mxPoint as="offset" />
          </mxGeometry>
        </mxCell>
        <mxCell id="OeqED8I9lP4eWum1eZ6B-41" value="return &quot;/config&quot;" style="html=1;verticalAlign=bottom;endArrow=open;endSize=8;edgeStyle=elbowEdgeStyle;elbow=vertical;curved=0;rounded=0;" edge="1" parent="1" target="OeqED8I9lP4eWum1eZ6B-32">
          <mxGeometry relative="1" as="geometry">
            <mxPoint x="275" y="580" as="targetPoint" />
            <Array as="points">
              <mxPoint x="370" y="580" />
            </Array>
            <mxPoint x="445" y="580" as="sourcePoint" />
            <mxPoint as="offset" />
          </mxGeometry>
        </mxCell>
        <mxCell id="OeqED8I9lP4eWum1eZ6B-42" value="return &quot;/status&quot;" style="html=1;verticalAlign=bottom;endArrow=open;endSize=8;edgeStyle=elbowEdgeStyle;elbow=vertical;curved=0;rounded=0;" edge="1" parent="1" target="OeqED8I9lP4eWum1eZ6B-32">
          <mxGeometry relative="1" as="geometry">
            <mxPoint x="275" y="600" as="targetPoint" />
            <Array as="points">
              <mxPoint x="370" y="600" />
            </Array>
            <mxPoint x="445" y="600" as="sourcePoint" />
            <mxPoint as="offset" />
          </mxGeometry>
        </mxCell>
        <mxCell id="OeqED8I9lP4eWum1eZ6B-44" value="" style="html=1;verticalAlign=bottom;endArrow=open;endSize=8;edgeStyle=elbowEdgeStyle;elbow=horizontal;curved=0;rounded=0;" edge="1" parent="1">
          <mxGeometry x="0.0084" relative="1" as="geometry">
            <mxPoint x="445" y="460" as="targetPoint" />
            <Array as="points">
              <mxPoint x="360" y="460" />
            </Array>
            <mxPoint x="275" y="460" as="sourcePoint" />
            <mxPoint as="offset" />
          </mxGeometry>
        </mxCell>
        <mxCell id="OeqED8I9lP4eWum1eZ6B-45" value="" style="html=1;verticalAlign=bottom;endArrow=open;endSize=8;edgeStyle=elbowEdgeStyle;elbow=horizontal;curved=0;rounded=0;" edge="1" parent="1">
          <mxGeometry x="0.0084" relative="1" as="geometry">
            <mxPoint x="445" y="470" as="targetPoint" />
            <Array as="points">
              <mxPoint x="360" y="470" />
            </Array>
            <mxPoint x="275" y="470" as="sourcePoint" />
            <mxPoint as="offset" />
          </mxGeometry>
        </mxCell>
        <mxCell id="OeqED8I9lP4eWum1eZ6B-46" value="" style="html=1;verticalAlign=bottom;endArrow=open;endSize=8;edgeStyle=elbowEdgeStyle;elbow=horizontal;curved=0;rounded=0;" edge="1" parent="1">
          <mxGeometry x="0.0084" relative="1" as="geometry">
            <mxPoint x="265" y="420" as="targetPoint" />
            <Array as="points">
              <mxPoint x="180" y="420" />
            </Array>
            <mxPoint x="95" y="420" as="sourcePoint" />
            <mxPoint as="offset" />
          </mxGeometry>
        </mxCell>
        <mxCell id="OeqED8I9lP4eWum1eZ6B-47" value="" style="html=1;verticalAlign=bottom;endArrow=open;endSize=8;edgeStyle=elbowEdgeStyle;elbow=horizontal;curved=0;rounded=0;" edge="1" parent="1">
          <mxGeometry x="0.0084" relative="1" as="geometry">
            <mxPoint x="265" y="430" as="targetPoint" />
            <Array as="points">
              <mxPoint x="180" y="430" />
            </Array>
            <mxPoint x="95" y="430" as="sourcePoint" />
            <mxPoint as="offset" />
          </mxGeometry>
        </mxCell>
        <mxCell id="OeqED8I9lP4eWum1eZ6B-48" value="" style="html=1;verticalAlign=bottom;endArrow=open;endSize=8;edgeStyle=elbowEdgeStyle;elbow=vertical;curved=0;rounded=0;" edge="1" parent="1">
          <mxGeometry x="0.0043" relative="1" as="geometry">
            <mxPoint x="460" y="580" as="targetPoint" />
            <Array as="points">
              <mxPoint x="550" y="580" />
            </Array>
            <mxPoint x="625" y="580" as="sourcePoint" />
            <mxPoint as="offset" />
          </mxGeometry>
        </mxCell>
        <mxCell id="OeqED8I9lP4eWum1eZ6B-49" value="" style="html=1;verticalAlign=bottom;endArrow=open;endSize=8;edgeStyle=elbowEdgeStyle;elbow=vertical;curved=0;rounded=0;" edge="1" parent="1" target="OeqED8I9lP4eWum1eZ6B-32">
          <mxGeometry relative="1" as="geometry">
            <mxPoint x="275" y="610" as="targetPoint" />
            <Array as="points">
              <mxPoint x="370" y="610" />
            </Array>
            <mxPoint x="445" y="610" as="sourcePoint" />
            <mxPoint as="offset" />
          </mxGeometry>
        </mxCell>
        <mxCell id="OeqED8I9lP4eWum1eZ6B-50" value="" style="html=1;verticalAlign=bottom;endArrow=open;endSize=8;edgeStyle=elbowEdgeStyle;elbow=vertical;curved=0;rounded=0;" edge="1" parent="1" target="OeqED8I9lP4eWum1eZ6B-32">
          <mxGeometry relative="1" as="geometry">
            <mxPoint x="275" y="620" as="targetPoint" />
            <Array as="points">
              <mxPoint x="370" y="620" />
            </Array>
            <mxPoint x="445" y="620" as="sourcePoint" />
            <mxPoint as="offset" />
          </mxGeometry>
        </mxCell>
        <mxCell id="OeqED8I9lP4eWum1eZ6B-51" value="" style="html=1;verticalAlign=bottom;endArrow=open;endSize=8;edgeStyle=elbowEdgeStyle;elbow=vertical;curved=0;rounded=0;" edge="1" parent="1">
          <mxGeometry x="0.0043" relative="1" as="geometry">
            <mxPoint x="460" y="590" as="targetPoint" />
            <Array as="points">
              <mxPoint x="550" y="590" />
            </Array>
            <mxPoint x="625" y="590" as="sourcePoint" />
            <mxPoint as="offset" />
          </mxGeometry>
        </mxCell>
        <mxCell id="OeqED8I9lP4eWum1eZ6B-52" value="" style="html=1;verticalAlign=bottom;endArrow=open;endSize=8;edgeStyle=elbowEdgeStyle;elbow=horizontal;curved=0;rounded=0;" edge="1" parent="1">
          <mxGeometry x="0.0084" relative="1" as="geometry">
            <mxPoint x="625" y="470" as="targetPoint" />
            <Array as="points">
              <mxPoint x="540" y="470" />
            </Array>
            <mxPoint x="460" y="470" as="sourcePoint" />
            <mxPoint as="offset" />
          </mxGeometry>
        </mxCell>
        <mxCell id="OeqED8I9lP4eWum1eZ6B-53" value="" style="html=1;verticalAlign=bottom;endArrow=open;endSize=8;edgeStyle=elbowEdgeStyle;elbow=horizontal;curved=0;rounded=0;" edge="1" parent="1">
          <mxGeometry x="0.0084" relative="1" as="geometry">
            <mxPoint x="625" y="480" as="targetPoint" />
            <Array as="points">
              <mxPoint x="540" y="480" />
            </Array>
            <mxPoint x="460" y="480" as="sourcePoint" />
            <mxPoint as="offset" />
          </mxGeometry>
        </mxCell>
        <mxCell id="OeqED8I9lP4eWum1eZ6B-54" value="request Dashboard HTML" style="html=1;verticalAlign=bottom;endArrow=open;edgeStyle=elbowEdgeStyle;elbow=vertical;curved=0;rounded=0;endFill=0;" edge="1" parent="1">
          <mxGeometry relative="1" as="geometry">
            <mxPoint x="95" y="270" as="sourcePoint" />
            <Array as="points">
              <mxPoint x="180" y="270" />
            </Array>
            <mxPoint x="265" y="270" as="targetPoint" />
            <mxPoint as="offset" />
          </mxGeometry>
        </mxCell>
        <mxCell id="OeqED8I9lP4eWum1eZ6B-55" value="login via OAuth Proxy&#39;s page" style="html=1;verticalAlign=bottom;endArrow=none;edgeStyle=elbowEdgeStyle;elbow=vertical;curved=0;rounded=0;endFill=0;startArrow=classic;startFill=0;" edge="1" parent="1">
          <mxGeometry x="0.0043" relative="1" as="geometry">
            <mxPoint x="265" y="190" as="sourcePoint" />
            <Array as="points">
              <mxPoint x="190" y="190" />
            </Array>
            <mxPoint x="100" y="190" as="targetPoint" />
            <mxPoint as="offset" />
          </mxGeometry>
        </mxCell>
        <mxCell id="OeqED8I9lP4eWum1eZ6B-56" value="(logged in)&lt;br&gt;redirect to Dashboard" style="html=1;verticalAlign=bottom;endArrow=classic;edgeStyle=elbowEdgeStyle;elbow=vertical;curved=0;rounded=0;endFill=0;" edge="1" parent="1">
          <mxGeometry x="0.0043" relative="1" as="geometry">
            <mxPoint x="265" y="230" as="sourcePoint" />
            <Array as="points">
              <mxPoint x="190" y="230" />
            </Array>
            <mxPoint x="100" y="230" as="targetPoint" />
            <mxPoint as="offset" />
          </mxGeometry>
        </mxCell>
      </root>
    </mxGraphModel>
  </diagram>
  <diagram id="snolBCz7aHpWA-cSPMSl" name="K8s Interactions">
    <mxGraphModel dx="1007" dy="559" grid="1" gridSize="10" guides="1" tooltips="1" connect="1" arrows="1" fold="1" page="1" pageScale="1" pageWidth="850" pageHeight="1100" math="0" shadow="0">
      <root>
        <mxCell id="0" />
        <mxCell id="1" parent="0" />
        <mxCell id="TAMZKo7po_dzFt24CIpb-12" value="" style="rounded=1;whiteSpace=wrap;html=1;fillColor=#e1d5e7;strokeColor=#9673a6;" vertex="1" parent="1">
          <mxGeometry x="195" y="110" width="630" height="240" as="geometry" />
        </mxCell>
        <mxCell id="TAMZKo7po_dzFt24CIpb-25" style="edgeStyle=orthogonalEdgeStyle;rounded=0;orthogonalLoop=1;jettySize=auto;html=1;exitX=1;exitY=0.5;exitDx=0;exitDy=0;" edge="1" parent="1" target="TAMZKo7po_dzFt24CIpb-24">
          <mxGeometry relative="1" as="geometry">
            <mxPoint x="420" y="231" as="sourcePoint" />
          </mxGeometry>
        </mxCell>
        <mxCell id="TAMZKo7po_dzFt24CIpb-26" value="Action as user" style="edgeLabel;html=1;align=center;verticalAlign=middle;resizable=0;points=[];labelBackgroundColor=none;" vertex="1" connectable="0" parent="TAMZKo7po_dzFt24CIpb-25">
          <mxGeometry x="-0.1045" relative="1" as="geometry">
            <mxPoint x="5" y="-11" as="offset" />
          </mxGeometry>
        </mxCell>
        <mxCell id="TAMZKo7po_dzFt24CIpb-17" value="" style="edgeStyle=orthogonalEdgeStyle;rounded=0;orthogonalLoop=1;jettySize=auto;html=1;entryX=0;entryY=0.5;entryDx=0;entryDy=0;" edge="1" parent="1" source="TAMZKo7po_dzFt24CIpb-14">
          <mxGeometry relative="1" as="geometry">
            <mxPoint x="230" y="231" as="targetPoint" />
          </mxGeometry>
        </mxCell>
        <mxCell id="TAMZKo7po_dzFt24CIpb-27" value="Perform CRUD action" style="edgeLabel;html=1;align=center;verticalAlign=middle;resizable=0;points=[];labelBackgroundColor=none;" vertex="1" connectable="0" parent="TAMZKo7po_dzFt24CIpb-17">
          <mxGeometry x="-0.3184" y="-2" relative="1" as="geometry">
            <mxPoint x="8" y="-11" as="offset" />
          </mxGeometry>
        </mxCell>
        <mxCell id="TAMZKo7po_dzFt24CIpb-14" value="Browser" style="shape=mxgraph.cisco.computers_and_peripherals.web_browser;html=1;pointerEvents=1;dashed=0;fillColor=#036897;strokeColor=#ffffff;strokeWidth=2;verticalLabelPosition=bottom;verticalAlign=top;align=center;outlineConnect=0;" vertex="1" parent="1">
          <mxGeometry x="20" y="199" width="62" height="64" as="geometry" />
        </mxCell>
        <mxCell id="TAMZKo7po_dzFt24CIpb-22" value="" style="shape=image;verticalLabelPosition=bottom;labelBackgroundColor=default;verticalAlign=top;aspect=fixed;imageAspect=0;image=https://raw.githubusercontent.com/kubernetes/community/e88618f0a00e37705c15edfbf27e80bf7014e5fd/icons/svg/resources/labeled/user.svg;" vertex="1" parent="1">
          <mxGeometry y="180.00000000000006" width="48" height="46.59" as="geometry" />
        </mxCell>
        <mxCell id="TAMZKo7po_dzFt24CIpb-23" value="OpenShift Console (K8s)" style="text;html=1;align=center;verticalAlign=middle;whiteSpace=wrap;rounded=0;fontSize=18;fontStyle=1" vertex="1" parent="1">
          <mxGeometry x="195" y="114" width="630" height="30" as="geometry" />
        </mxCell>
        <mxCell id="TAMZKo7po_dzFt24CIpb-24" value="" style="shape=image;verticalLabelPosition=bottom;labelBackgroundColor=none;verticalAlign=middle;aspect=fixed;imageAspect=0;image=https://raw.githubusercontent.com/kubernetes/community/e88618f0a00e37705c15edfbf27e80bf7014e5fd/icons/svg/control_plane_components/labeled/api.svg;horizontal=1;" vertex="1" parent="1">
          <mxGeometry x="512.09" y="198" width="68" height="66" as="geometry" />
        </mxCell>
        <mxCell id="TAMZKo7po_dzFt24CIpb-53" value="" style="group" vertex="1" connectable="0" parent="1">
          <mxGeometry x="640" y="181" width="126.81000000000006" height="100" as="geometry" />
        </mxCell>
        <mxCell id="TAMZKo7po_dzFt24CIpb-49" value="&lt;p style=&quot;line-height: 120%;&quot;&gt;resources&lt;/p&gt;" style="ellipse;shape=cloud;whiteSpace=wrap;html=1;fillColor=#f5f5f5;fontColor=#333333;strokeColor=#666666;spacingTop=16;" vertex="1" parent="TAMZKo7po_dzFt24CIpb-53">
          <mxGeometry y="10" width="120" height="80" as="geometry" />
        </mxCell>
        <mxCell id="TAMZKo7po_dzFt24CIpb-46" value="" style="html=1;verticalLabelPosition=bottom;align=center;labelBackgroundColor=#ffffff;verticalAlign=top;strokeWidth=2;strokeColor=#0080F0;shadow=0;dashed=0;shape=mxgraph.ios7.icons.edit;" vertex="1" parent="TAMZKo7po_dzFt24CIpb-53">
          <mxGeometry x="90.60000000000002" y="60" width="29.4" height="29.4" as="geometry" />
        </mxCell>
        <mxCell id="TAMZKo7po_dzFt24CIpb-21" value="" style="shape=image;verticalLabelPosition=bottom;labelBackgroundColor=default;verticalAlign=top;aspect=fixed;imageAspect=0;image=https://raw.githubusercontent.com/kubernetes/community/e88618f0a00e37705c15edfbf27e80bf7014e5fd/icons/svg/resources/labeled/crd.svg;" vertex="1" parent="TAMZKo7po_dzFt24CIpb-53">
          <mxGeometry x="85.60000000000002" width="41.21" height="40" as="geometry" />
        </mxCell>
        <mxCell id="TAMZKo7po_dzFt24CIpb-42" value="" style="html=1;verticalLabelPosition=bottom;align=center;labelBackgroundColor=#ffffff;verticalAlign=top;strokeWidth=2;strokeColor=#0080F0;shadow=0;dashed=0;shape=mxgraph.ios7.icons.add;" vertex="1" parent="TAMZKo7po_dzFt24CIpb-53">
          <mxGeometry y="60" width="30" height="30" as="geometry" />
        </mxCell>
        <mxCell id="TAMZKo7po_dzFt24CIpb-47" value="" style="html=1;verticalLabelPosition=bottom;align=center;labelBackgroundColor=#ffffff;verticalAlign=top;strokeWidth=2;strokeColor=#0080F0;shadow=0;dashed=0;shape=mxgraph.ios7.icons.trashcan;" vertex="1" parent="TAMZKo7po_dzFt24CIpb-53">
          <mxGeometry x="48" y="70" width="24" height="30" as="geometry" />
        </mxCell>
        <mxCell id="TAMZKo7po_dzFt24CIpb-48" value="" style="shape=image;verticalLabelPosition=bottom;labelBackgroundColor=default;verticalAlign=top;aspect=fixed;imageAspect=0;image=https://raw.githubusercontent.com/kubernetes/community/e88618f0a00e37705c15edfbf27e80bf7014e5fd/icons/svg/resources/labeled/pvc.svg;" vertex="1" parent="TAMZKo7po_dzFt24CIpb-53">
          <mxGeometry x="57.09000000000003" y="10" width="41.21" height="40" as="geometry" />
        </mxCell>
        <mxCell id="TAMZKo7po_dzFt24CIpb-51" value="" style="shape=image;verticalLabelPosition=bottom;labelBackgroundColor=default;verticalAlign=top;aspect=fixed;imageAspect=0;image=https://raw.githubusercontent.com/kubernetes/community/e88618f0a00e37705c15edfbf27e80bf7014e5fd/icons/svg/resources/labeled/secret.svg;" vertex="1" parent="TAMZKo7po_dzFt24CIpb-53">
          <mxGeometry x="30" y="4" width="37.09" height="36" as="geometry" />
        </mxCell>
        <mxCell id="TAMZKo7po_dzFt24CIpb-52" value="" style="shape=image;verticalLabelPosition=bottom;labelBackgroundColor=default;verticalAlign=top;aspect=fixed;imageAspect=0;image=https://raw.githubusercontent.com/kubernetes/community/e88618f0a00e37705c15edfbf27e80bf7014e5fd/icons/svg/resources/labeled/cm.svg;" vertex="1" parent="TAMZKo7po_dzFt24CIpb-53">
          <mxGeometry y="14" width="37.09" height="36" as="geometry" />
        </mxCell>
        <mxCell id="TAMZKo7po_dzFt24CIpb-54" value="" style="endArrow=classic;html=1;rounded=0;exitX=1;exitY=0.5;exitDx=0;exitDy=0;" edge="1" parent="1" source="TAMZKo7po_dzFt24CIpb-24" target="TAMZKo7po_dzFt24CIpb-49">
          <mxGeometry width="50" height="50" relative="1" as="geometry">
            <mxPoint x="375" y="290" as="sourcePoint" />
            <mxPoint x="425" y="240" as="targetPoint" />
          </mxGeometry>
        </mxCell>
        <mxCell id="TAMZKo7po_dzFt24CIpb-57" value="CRUD actions" style="text;html=1;align=center;verticalAlign=middle;whiteSpace=wrap;rounded=0;" vertex="1" parent="1">
          <mxGeometry x="655.11" y="281" width="96.59" height="30" as="geometry" />
        </mxCell>
        <mxCell id="E70_igcn33sUq_3qUaYx-1" value="" style="rounded=1;whiteSpace=wrap;html=1;fillColor=#d5e8d4;strokeColor=#82b366;" vertex="1" parent="1">
          <mxGeometry x="225" y="171" width="200" height="169" as="geometry" />
        </mxCell>
        <mxCell id="E70_igcn33sUq_3qUaYx-2" value="" style="shape=image;verticalLabelPosition=bottom;labelBackgroundColor=default;verticalAlign=top;aspect=fixed;imageAspect=0;image=https://raw.githubusercontent.com/kubernetes/community/e88618f0a00e37705c15edfbf27e80bf7014e5fd/icons/svg/resources/unlabeled/pod.svg;" vertex="1" parent="1">
          <mxGeometry x="215" y="150" width="40.91" height="39.71" as="geometry" />
        </mxCell>
        <mxCell id="E70_igcn33sUq_3qUaYx-3" value="Dashboard Pod" style="text;html=1;align=center;verticalAlign=middle;whiteSpace=wrap;rounded=0;" vertex="1" parent="1">
          <mxGeometry x="230" y="170" width="195" height="30" as="geometry" />
        </mxCell>
        <mxCell id="E70_igcn33sUq_3qUaYx-4" value="" style="edgeStyle=orthogonalEdgeStyle;rounded=0;orthogonalLoop=1;jettySize=auto;html=1;" edge="1" parent="1">
          <mxGeometry relative="1" as="geometry">
            <mxPoint x="250" y="230.9999999999999" as="sourcePoint" />
            <mxPoint x="400" y="230.9999999999999" as="targetPoint" />
          </mxGeometry>
        </mxCell>
        <mxCell id="E70_igcn33sUq_3qUaYx-5" value="x-forwarded-access-token&lt;div&gt;&lt;br&gt;&lt;/div&gt;&lt;div&gt;Bearer Token&lt;/div&gt;" style="edgeLabel;html=1;align=center;verticalAlign=middle;resizable=0;points=[];labelBackgroundColor=none;" vertex="1" connectable="0" parent="E70_igcn33sUq_3qUaYx-4">
          <mxGeometry x="-0.152" y="2" relative="1" as="geometry">
            <mxPoint x="11" y="1" as="offset" />
          </mxGeometry>
        </mxCell>
        <mxCell id="E70_igcn33sUq_3qUaYx-6" value="OAuth Container" style="rounded=0;whiteSpace=wrap;html=1;fillColor=#f8cecc;strokeColor=#b85450;spacingTop=60;align=left;" vertex="1" parent="1">
          <mxGeometry x="230" y="201" width="20" height="99" as="geometry" />
        </mxCell>
        <mxCell id="E70_igcn33sUq_3qUaYx-7" value="Dashboard Container" style="rounded=0;whiteSpace=wrap;html=1;fillColor=#dae8fc;strokeColor=#6c8ebf;spacingTop=60;align=right;" vertex="1" parent="1">
          <mxGeometry x="400" y="201" width="20" height="129" as="geometry" />
        </mxCell>
        <mxCell id="6Ln-1AUzDeJWtAmBe4Ck-1" style="edgeStyle=orthogonalEdgeStyle;rounded=0;orthogonalLoop=1;jettySize=auto;html=1;exitX=0;exitY=0.75;exitDx=0;exitDy=0;" edge="1" parent="1" target="TAMZKo7po_dzFt24CIpb-14">
          <mxGeometry relative="1" as="geometry">
            <mxPoint x="90" y="246" as="targetPoint" />
            <mxPoint x="400" y="323" as="sourcePoint" />
            <Array as="points">
              <mxPoint x="150" y="323" />
              <mxPoint x="150" y="246" />
            </Array>
          </mxGeometry>
        </mxCell>
        <mxCell id="6Ln-1AUzDeJWtAmBe4Ck-5" value="Data returned to user&#39;s browser" style="edgeLabel;html=1;align=center;verticalAlign=middle;resizable=0;points=[];labelBackgroundColor=none;" vertex="1" connectable="0" parent="6Ln-1AUzDeJWtAmBe4Ck-1">
          <mxGeometry x="-0.0655" relative="1" as="geometry">
            <mxPoint x="17" y="7" as="offset" />
          </mxGeometry>
        </mxCell>
        <mxCell id="6Ln-1AUzDeJWtAmBe4Ck-3" style="edgeStyle=orthogonalEdgeStyle;rounded=0;orthogonalLoop=1;jettySize=auto;html=1;exitX=0.5;exitY=1;exitDx=0;exitDy=0;entryX=1.042;entryY=0.945;entryDx=0;entryDy=0;entryPerimeter=0;" edge="1" parent="1" source="TAMZKo7po_dzFt24CIpb-24" target="E70_igcn33sUq_3qUaYx-7">
          <mxGeometry relative="1" as="geometry" />
        </mxCell>
        <mxCell id="6Ln-1AUzDeJWtAmBe4Ck-4" value="K8s response" style="edgeLabel;html=1;align=center;verticalAlign=middle;resizable=0;points=[];labelBackgroundColor=none;" vertex="1" connectable="0" parent="6Ln-1AUzDeJWtAmBe4Ck-3">
          <mxGeometry x="0.3392" y="-4" relative="1" as="geometry">
            <mxPoint x="18" y="-8" as="offset" />
          </mxGeometry>
        </mxCell>
      </root>
    </mxGraphModel>
  </diagram>
  <diagram name="REST Interactions" id="fJ4xFG9vxpKaBXxHUj7M">
    <mxGraphModel dx="968" dy="538" grid="1" gridSize="10" guides="1" tooltips="1" connect="1" arrows="1" fold="1" page="1" pageScale="1" pageWidth="850" pageHeight="1100" math="0" shadow="0">
      <root>
        <mxCell id="whKoQY7e2CWpvVCVvnhp-0" />
        <mxCell id="whKoQY7e2CWpvVCVvnhp-1" parent="whKoQY7e2CWpvVCVvnhp-0" />
        <mxCell id="whKoQY7e2CWpvVCVvnhp-2" value="" style="rounded=1;whiteSpace=wrap;html=1;fillColor=#e1d5e7;strokeColor=#9673a6;" vertex="1" parent="whKoQY7e2CWpvVCVvnhp-1">
          <mxGeometry x="195" y="110" width="630" height="240" as="geometry" />
        </mxCell>
        <mxCell id="whKoQY7e2CWpvVCVvnhp-3" value="" style="rounded=1;whiteSpace=wrap;html=1;fillColor=#d5e8d4;strokeColor=#82b366;" vertex="1" parent="whKoQY7e2CWpvVCVvnhp-1">
          <mxGeometry x="225" y="171" width="200" height="169" as="geometry" />
        </mxCell>
        <mxCell id="whKoQY7e2CWpvVCVvnhp-4" value="" style="shape=image;verticalLabelPosition=bottom;labelBackgroundColor=default;verticalAlign=top;aspect=fixed;imageAspect=0;image=https://raw.githubusercontent.com/kubernetes/community/e88618f0a00e37705c15edfbf27e80bf7014e5fd/icons/svg/resources/unlabeled/pod.svg;" vertex="1" parent="whKoQY7e2CWpvVCVvnhp-1">
          <mxGeometry x="215" y="150" width="40.91" height="39.71" as="geometry" />
        </mxCell>
        <mxCell id="whKoQY7e2CWpvVCVvnhp-5" value="Dashboard Pod" style="text;html=1;align=center;verticalAlign=middle;whiteSpace=wrap;rounded=0;" vertex="1" parent="whKoQY7e2CWpvVCVvnhp-1">
          <mxGeometry x="230" y="170" width="195" height="30" as="geometry" />
        </mxCell>
        <mxCell id="whKoQY7e2CWpvVCVvnhp-6" value="" style="edgeStyle=orthogonalEdgeStyle;rounded=0;orthogonalLoop=1;jettySize=auto;html=1;" edge="1" parent="whKoQY7e2CWpvVCVvnhp-1">
          <mxGeometry relative="1" as="geometry">
            <mxPoint x="250" y="230.9999999999999" as="sourcePoint" />
            <mxPoint x="400" y="230.9999999999999" as="targetPoint" />
          </mxGeometry>
        </mxCell>
        <mxCell id="whKoQY7e2CWpvVCVvnhp-7" value="x-forwarded-access-token&lt;div&gt;&lt;br&gt;&lt;/div&gt;&lt;div&gt;Bearer Token&lt;/div&gt;" style="edgeLabel;html=1;align=center;verticalAlign=middle;resizable=0;points=[];labelBackgroundColor=none;" vertex="1" connectable="0" parent="whKoQY7e2CWpvVCVvnhp-6">
          <mxGeometry x="-0.152" y="2" relative="1" as="geometry">
            <mxPoint x="11" y="1" as="offset" />
          </mxGeometry>
        </mxCell>
        <mxCell id="whKoQY7e2CWpvVCVvnhp-8" value="OAuth Container" style="rounded=0;whiteSpace=wrap;html=1;fillColor=#f8cecc;strokeColor=#b85450;spacingTop=60;align=left;" vertex="1" parent="whKoQY7e2CWpvVCVvnhp-1">
          <mxGeometry x="230" y="201" width="20" height="99" as="geometry" />
        </mxCell>
        <mxCell id="whKoQY7e2CWpvVCVvnhp-9" style="edgeStyle=orthogonalEdgeStyle;rounded=0;orthogonalLoop=1;jettySize=auto;html=1;exitX=1;exitY=0.5;exitDx=0;exitDy=0;" edge="1" parent="whKoQY7e2CWpvVCVvnhp-1">
          <mxGeometry relative="1" as="geometry">
            <mxPoint x="420" y="230.9999999999999" as="sourcePoint" />
            <mxPoint x="512.0900000000001" y="230.9999999999999" as="targetPoint" />
          </mxGeometry>
        </mxCell>
        <mxCell id="whKoQY7e2CWpvVCVvnhp-10" value="Action as user" style="edgeLabel;html=1;align=center;verticalAlign=middle;resizable=0;points=[];labelBackgroundColor=none;" vertex="1" connectable="0" parent="whKoQY7e2CWpvVCVvnhp-9">
          <mxGeometry x="-0.1045" relative="1" as="geometry">
            <mxPoint x="5" y="-11" as="offset" />
          </mxGeometry>
        </mxCell>
        <mxCell id="6k0rq0l06MuYB4dQekMT-11" style="edgeStyle=orthogonalEdgeStyle;rounded=0;orthogonalLoop=1;jettySize=auto;html=1;exitX=0;exitY=0.75;exitDx=0;exitDy=0;" edge="1" parent="whKoQY7e2CWpvVCVvnhp-1">
          <mxGeometry relative="1" as="geometry">
            <mxPoint x="110" y="246" as="targetPoint" />
            <mxPoint x="400" y="323" as="sourcePoint" />
            <Array as="points">
              <mxPoint x="150" y="324" />
              <mxPoint x="150" y="246" />
              <mxPoint x="120" y="246" />
            </Array>
          </mxGeometry>
        </mxCell>
        <mxCell id="whKoQY7e2CWpvVCVvnhp-11" value="Dashboard Container" style="rounded=0;whiteSpace=wrap;html=1;fillColor=#dae8fc;strokeColor=#6c8ebf;spacingTop=60;align=right;" vertex="1" parent="whKoQY7e2CWpvVCVvnhp-1">
          <mxGeometry x="400" y="201" width="20" height="129" as="geometry" />
        </mxCell>
        <mxCell id="whKoQY7e2CWpvVCVvnhp-12" value="" style="edgeStyle=orthogonalEdgeStyle;rounded=0;orthogonalLoop=1;jettySize=auto;html=1;entryX=0;entryY=0.5;entryDx=0;entryDy=0;" edge="1" parent="whKoQY7e2CWpvVCVvnhp-1" source="whKoQY7e2CWpvVCVvnhp-14">
          <mxGeometry relative="1" as="geometry">
            <mxPoint x="230" y="230.9999999999999" as="targetPoint" />
          </mxGeometry>
        </mxCell>
        <mxCell id="6k0rq0l06MuYB4dQekMT-13" value="Custom Action" style="edgeLabel;html=1;align=center;verticalAlign=middle;resizable=0;points=[];labelBackgroundColor=none;" vertex="1" connectable="0" parent="whKoQY7e2CWpvVCVvnhp-12">
          <mxGeometry x="-0.056" y="-2" relative="1" as="geometry">
            <mxPoint x="-16" y="-13" as="offset" />
          </mxGeometry>
        </mxCell>
        <mxCell id="whKoQY7e2CWpvVCVvnhp-14" value="Browser" style="shape=mxgraph.cisco.computers_and_peripherals.web_browser;html=1;pointerEvents=1;dashed=0;fillColor=#036897;strokeColor=#ffffff;strokeWidth=2;verticalLabelPosition=bottom;verticalAlign=top;align=center;outlineConnect=0;" vertex="1" parent="whKoQY7e2CWpvVCVvnhp-1">
          <mxGeometry x="45" y="199" width="62" height="64" as="geometry" />
        </mxCell>
        <mxCell id="whKoQY7e2CWpvVCVvnhp-15" value="" style="shape=image;verticalLabelPosition=bottom;labelBackgroundColor=default;verticalAlign=top;aspect=fixed;imageAspect=0;image=https://raw.githubusercontent.com/kubernetes/community/e88618f0a00e37705c15edfbf27e80bf7014e5fd/icons/svg/resources/labeled/user.svg;" vertex="1" parent="whKoQY7e2CWpvVCVvnhp-1">
          <mxGeometry x="25" y="180.00000000000006" width="48" height="46.59" as="geometry" />
        </mxCell>
        <mxCell id="whKoQY7e2CWpvVCVvnhp-16" value="OpenShift Console (K8s)" style="text;html=1;align=center;verticalAlign=middle;whiteSpace=wrap;rounded=0;fontSize=18;fontStyle=1" vertex="1" parent="whKoQY7e2CWpvVCVvnhp-1">
          <mxGeometry x="195" y="114" width="630" height="30" as="geometry" />
        </mxCell>
        <mxCell id="6k0rq0l06MuYB4dQekMT-0" value="" style="shape=image;verticalLabelPosition=bottom;labelBackgroundColor=default;verticalAlign=top;aspect=fixed;imageAspect=0;image=https://raw.githubusercontent.com/kubernetes/community/e88618f0a00e37705c15edfbf27e80bf7014e5fd/icons/svg/resources/labeled/ing.svg;" vertex="1" parent="whKoQY7e2CWpvVCVvnhp-1">
          <mxGeometry x="510" y="169.70999999999998" width="68" height="66" as="geometry" />
        </mxCell>
        <mxCell id="6k0rq0l06MuYB4dQekMT-1" value="External Route or &#xa;Internal Service" style="shape=image;verticalLabelPosition=bottom;labelBackgroundColor=none;verticalAlign=top;aspect=fixed;imageAspect=0;image=https://raw.githubusercontent.com/kubernetes/community/e88618f0a00e37705c15edfbf27e80bf7014e5fd/icons/svg/resources/labeled/svc.svg;" vertex="1" parent="whKoQY7e2CWpvVCVvnhp-1">
          <mxGeometry x="510" y="215" width="68" height="66" as="geometry" />
        </mxCell>
        <mxCell id="6k0rq0l06MuYB4dQekMT-7" style="edgeStyle=orthogonalEdgeStyle;rounded=0;orthogonalLoop=1;jettySize=auto;html=1;exitX=1;exitY=0.5;exitDx=0;exitDy=0;exitPerimeter=0;entryX=0.99;entryY=0.949;entryDx=0;entryDy=0;entryPerimeter=0;" edge="1" parent="whKoQY7e2CWpvVCVvnhp-1">
          <mxGeometry relative="1" as="geometry">
            <mxPoint x="419.80000000000007" y="323.42100000000005" as="targetPoint" />
            <mxPoint x="758" y="226" as="sourcePoint" />
            <Array as="points">
              <mxPoint x="800" y="226" />
              <mxPoint x="800" y="323" />
            </Array>
          </mxGeometry>
        </mxCell>
        <mxCell id="6k0rq0l06MuYB4dQekMT-2" value="Custom API" style="strokeWidth=2;html=1;shape=mxgraph.flowchart.multi-document;whiteSpace=wrap;spacingRight=9;fillColor=#f5f5f5;fontColor=#333333;strokeColor=#666666;" vertex="1" parent="whKoQY7e2CWpvVCVvnhp-1">
          <mxGeometry x="670" y="196" width="88" height="60" as="geometry" />
        </mxCell>
        <mxCell id="6k0rq0l06MuYB4dQekMT-3" style="edgeStyle=orthogonalEdgeStyle;rounded=0;orthogonalLoop=1;jettySize=auto;html=1;exitX=1;exitY=0.5;exitDx=0;exitDy=0;" edge="1" parent="whKoQY7e2CWpvVCVvnhp-1">
          <mxGeometry relative="1" as="geometry">
            <mxPoint x="578" y="230.71" as="sourcePoint" />
            <mxPoint x="670.0900000000001" y="230.7099999999999" as="targetPoint" />
          </mxGeometry>
        </mxCell>
        <mxCell id="6k0rq0l06MuYB4dQekMT-4" value="REST call" style="edgeLabel;html=1;align=center;verticalAlign=middle;resizable=0;points=[];labelBackgroundColor=none;" vertex="1" connectable="0" parent="6k0rq0l06MuYB4dQekMT-3">
          <mxGeometry x="-0.1045" relative="1" as="geometry">
            <mxPoint x="5" y="-11" as="offset" />
          </mxGeometry>
        </mxCell>
        <mxCell id="6k0rq0l06MuYB4dQekMT-5" value="REST routes CRUD in DBs, against k8s, internal data storages, etc" style="text;html=1;align=center;verticalAlign=middle;whiteSpace=wrap;rounded=0;" vertex="1" parent="whKoQY7e2CWpvVCVvnhp-1">
          <mxGeometry x="652" y="270" width="124" height="30" as="geometry" />
        </mxCell>
        <mxCell id="1q6YXxOl_dEBvapi0oge-0" value="Data returned to user&#39;s browser" style="edgeLabel;html=1;align=center;verticalAlign=middle;resizable=0;points=[];labelBackgroundColor=none;" vertex="1" connectable="0" parent="whKoQY7e2CWpvVCVvnhp-1">
          <mxGeometry x="232.20000000000005" y="330" as="geometry" />
        </mxCell>
      </root>
    </mxGraphModel>
  </diagram>
</mxfile>
